<?xml version="1.0" standalone="no"?>
<!DOCTYPE svg PUBLIC "-//W3C//DTD SVG 20010904//EN"
 "http://www.w3.org/TR/2001/REC-SVG-20010904/DTD/svg10.dtd">
<svg version="1.0" xmlns="http://www.w3.org/2000/svg"
 width="16.000000pt" height="16.000000pt" viewBox="0 0 16.000000 16.000000"
 preserveAspectRatio="xMidYMid meet">
<metadata>
Created by potrace 1.11, written by Peter Selinger 2001-2013
</metadata>
<g transform="translate(0.000000,16.000000) scale(0.006130,-0.006130)"
fill="#000000" stroke="none">
<path d="M1172 2589 c-77 -39 -75 -18 -75 -673 l0 -580 -23 -23 c-13 -13 -32
-23 -43 -23 -29 0 -61 39 -61 74 -1 17 -1 220 -1 450 0 463 -1 469 -61 506
-42 27 -126 23 -159 -6 -48 -43 -49 -51 -49 -587 0 -488 -1 -504 -20 -522 -27
-24 -70 -22 -92 5 -17 20 -18 48 -18 344 0 301 -1 323 -20 353 -50 82 -172 86
-226 6 -18 -27 -19 -55 -20 -533 -1 -278 3 -539 8 -580 58 -445 448 -791 898
-794 213 -1 366 42 525 148 207 138 343 352 405 636 11 47 39 174 64 283 25
108 48 207 50 220 3 12 18 79 35 150 23 99 27 134 20 160 -20 67 -78 104 -152
94 -74 -10 -92 -42 -181 -316 -82 -257 -99 -287 -146 -276 -14 4 -33 14 -42
22 -17 15 -18 57 -18 611 0 420 -3 605 -11 626 -17 45 -60 76 -116 82 -40 5
-54 2 -83 -18 -66 -45 -64 -30 -65 -590 -1 -507 -1 -508 -23 -528 -27 -25 -53
-25 -83 -1 l-24 19 0 593 c-1 445 -4 599 -13 616 -33 60 -115 84 -180 52z
m211 -1510 c109 -36 210 -101 336 -214 45 -40 161 -184 161 -199 0 -14 -143
-178 -191 -220 -202 -173 -379 -237 -558 -200 -162 33 -344 160 -498 346 l-61
74 35 49 c43 61 227 242 254 250 10 4 19 10 19 15 0 16 187 101 250 114 84 16
175 11 253 -15z"/>
<path d="M1125 1011 c-104 -34 -177 -100 -223 -200 -22 -46 -27 -70 -27 -141
0 -75 4 -92 32 -150 52 -106 119 -164 228 -195 56 -17 145 -16 204 1 84 24
173 105 215 193 27 58 31 77 31 151 0 76 -3 92 -32 151 -39 78 -102 141 -179
176 -70 32 -177 38 -249 14z m170 -142 c23 -7 57 -28 81 -53 90 -90 84 -223
-15 -308 -133 -113 -340 -14 -341 164 l0 47 33 -13 c87 -35 167 52 123 136
-13 24 -12 27 2 31 32 9 77 7 117 -4z"/>
</g>
</svg>
