<svg width="64" height="48" viewBox="0 0 64 48" fill="none" xmlns="http://www.w3.org/2000/svg">
<path d="M11.5445 48C15.513 48 18.9763 46.5185 21.9346 43.5556C24.8929 40.5926 26.336 37.1111 26.336 33.037C26.336 30.8889 25.7587 28.8889 24.5321 26.963C23.3055 25.037 21.7903 23.6296 19.9865 22.6667C20.7802 19.4815 24.0271 14.6667 29.655 8.22222L29.9436 6.59259L23.6663 0.0740741H22.1511C14.8636 7.33333 9.37993 13.7778 5.62796 19.4815C1.87599 25.1852 0 30.5926 0 35.7037C0 39.4815 1.0823 42.4444 3.2469 44.6667C5.4115 46.8889 8.22548 48 11.6167 48H11.5445ZM45.6009 48C49.5693 48 53.0327 46.5185 55.9188 43.5556C58.805 40.5926 60.248 37.1111 60.248 33.037C60.248 30.8889 59.6708 28.8889 58.5163 26.963C57.3619 25.037 55.8467 23.6296 54.0428 22.6667C54.8365 19.4815 58.0834 14.6667 63.7835 8.14815L64 6.51852L57.7948 0H56.2074C48.8478 7.33333 43.292 13.7778 39.6122 19.4074C35.9324 25.037 34.0564 30.4444 34.0564 35.7037C34.0564 39.4074 35.1387 42.3704 37.3033 44.5926C39.4679 46.8148 42.2818 47.9259 45.6731 47.9259L45.6009 48Z" fill="black" fill-opacity="0.2"/>
</svg>
